<?xml version="1.0" encoding="UTF-8"?>
<svg width="50px" height="91px" viewBox="0 0 50 91" version="1.1" xmlns="http://www.w3.org/2000/svg" xmlns:xlink="http://www.w3.org/1999/xlink">
    <!-- Generator: Sketch 52.6 (67491) - http://www.bohemiancoding.com/sketch -->
    <title>fb</title>
    <desc>Created with Sketch.</desc>
    <g id="Page-1" stroke="none" stroke-width="1" fill="none" fill-rule="evenodd">
        <g id="fb" fill="#FFFFFF">
            <path d="M47.2537736,0.0188679245 L35.4943396,0 C22.2830189,0 13.745283,8.75943396 13.745283,22.3169811 L13.745283,32.6066038 L1.92169811,32.6066038 C0.9,32.6066038 0.0726415094,33.4349057 0.0726415094,34.4566038 L0.0726415094,49.3650943 C0.0726415094,50.3867925 0.900943396,51.2141509 1.92169811,51.2141509 L13.745283,51.2141509 L13.745283,88.8330189 C13.745283,89.854717 14.5726415,90.6820755 15.5943396,90.6820755 L31.0207547,90.6820755 C32.0424528,90.6820755 32.8698113,89.8537736 32.8698113,88.8330189 L32.8698113,51.2141509 L46.6943396,51.2141509 C47.7160377,51.2141509 48.5433962,50.3867925 48.5433962,49.3650943 L48.5490566,34.4566038 C48.5490566,33.9660377 48.3537736,33.4962264 48.0075472,33.1490566 C47.6613208,32.8018868 47.1896226,32.6066038 46.6990566,32.6066038 L32.8698113,32.6066038 L32.8698113,23.8839623 C32.8698113,19.6915094 33.8688679,17.5632075 39.3301887,17.5632075 L47.2518868,17.5603774 C48.2726415,17.5603774 49.1,16.7320755 49.1,15.7113208 L49.1,1.86792453 C49.1,0.848113208 48.2735849,0.020754717 47.2537736,0.0188679245 Z" id="Path"></path>
        </g>
    </g>
</svg>